<svg xmlns="http://www.w3.org/2000/svg" width="213.204" height="95.985" viewBox="0 0 213.204 95.985">
  <g id="Group_104" data-name="Group 104" transform="translate(-178.334 -45.252)">
    <path id="Path_360" data-name="Path 360" d="M181.271,68.775s-1.54-11.663,16.284-20.245,45.112,2.2,45.772,3.961c0,0,.11,3.741-1.87,5.061s-3.191-7.482-25.747-8.8c0,0-5.5-.22-5.942,3.851,0,0-.77,5.281,14.634,5.391s21.456,9.462,22.116,11.333,11.883,28.717-30.038,31.468c0,0-15.184.55-34.549-8.362a.983.983,0,0,1,0-1.21c.44-.77,2.861-3.961,2.861-3.961s.44-1.21,2.2,0,12.543,10.783,24.646,10.453c0,0,7.812.44,9.022-3.631s-6.382-6.6-14.744-7.152S181.491,83.408,181.271,68.775Z" transform="translate(-1.626)" fill="#040505"/>
    <path id="Path_361" data-name="Path 361" d="M510.271,75.051s-1.54-11.663,16.284-20.245,45.112,2.2,45.772,3.961c0,0,.11,3.741-1.87,5.061s-3.191-7.482-25.747-8.8c0,0-5.5-.22-5.942,3.851,0,0-.77,5.281,14.634,5.391S574.858,73.73,575.518,75.6s11.883,28.717-30.038,31.468c0,0-15.184.55-34.549-8.362a.983.983,0,0,1,0-1.21c.44-.77,2.861-3.961,2.861-3.961s.44-1.21,2.2,0,12.543,10.783,24.646,10.453c0,0,7.812.44,9.022-3.631s-6.382-6.6-14.744-7.152S510.492,89.684,510.271,75.051Z" transform="translate(-185.828 -3.514)" fill="#040505"/>
    <path id="Path_362" data-name="Path 362" d="M407.66,66.72s-5.789-20.245-41.218-20.245S325.732,66.72,325.732,66.72s-12.543,34.329,42.031,34.226S407.66,66.72,407.66,66.72ZM367.941,97.14s-22.645,3.426-22.975-23.373c-.309-25.068,22.975-23.5,22.975-23.5s20.885-.274,21.037,24.426C389.135,100.441,367.941,97.14,367.941,97.14Z" transform="translate(-81.829 -0.685)" fill="#040505"/>
    <g id="Group_102" data-name="Group 102" transform="translate(251.421 56.121)">
      <g id="Group_101" data-name="Group 101" transform="translate(2.787 1.174)">
        <path id="Path_363" data-name="Path 363" d="M384.5,113c-.1-.1-.183-.2-.277-.3,2.574-2.094,5.251-4.136,7.812-6.332,13.241-11.357,11.174-24.005,11.174-24.005-6.029-15.5-23.41-5.721-23.733-5.5s1.518,1.375-2.932,9.813c0,0-1.2,17.806-2.819,30.041-10.819,8.849-17.555,13.348-17.555,13.348,7.442-1.915,11.487-4.547,19.559-10.645.125.158.246.315.374.474,0,0,13.993,13.993,27.771,15.285,0,0,7.535-3.014,9.9-4.952C413.783,130.225,401.082,130.656,384.5,113Zm-4.712-27.344a22.14,22.14,0,0,1,5.354-6.261s6.679,2,7.755,6.264-4.267,16.617-11.273,23.852C374.881,100.077,376.89,91.412,379.793,85.658Z" transform="translate(-353.78 -73.175)" fill="#040505"/>
        <path id="Path_364" data-name="Path 364" d="M388.036,73.055c4.627,0,9.477,1.926,12.129,8.746,0,0,2.067,12.648-11.174,24.005-2.561,2.2-5.238,4.239-7.812,6.332.094.1.182.2.277.3,15.806,16.833,28.089,17.224,29.2,17.224h.081c-2.368,1.938-9.9,4.952-9.9,4.952-13.778-1.292-27.771-15.285-27.771-15.285-.128-.159-.25-.316-.374-.474-8.073,6.1-12.117,8.73-19.559,10.645,0,0,6.736-4.5,17.555-13.348,1.623-12.235,2.819-30.041,2.819-30.041,4.45-8.438,2.609-9.592,2.932-9.813a26.205,26.205,0,0,1,11.6-3.246m-9.457,35.9c7.006-7.235,12.35-19.591,11.273-23.852s-7.755-6.264-7.755-6.264a22.141,22.141,0,0,0-5.354,6.261c-2.9,5.754-4.911,14.419,1.835,23.854m9.457-36.337a26.686,26.686,0,0,0-11.852,3.323.638.638,0,0,0-.185.747c.412,1.706-.56,4.81-2.888,9.224l-.043.082-.006.093c-.012.177-1.2,17.763-2.793,29.84-10.6,8.663-17.319,13.167-17.386,13.212l-2.152,1.437,2.506-.645c7.509-1.933,11.54-4.557,19.37-10.46l.11.139.015.018.017.017c.141.141,14.265,14.121,28.041,15.412l.106.01.1-.04c.311-.124,7.626-3.062,10.018-5.019l1.008-.825-1.3.044h-.066c-1.312,0-13.262-.479-28.834-17.04.791-.639,1.6-1.282,2.385-1.907,1.676-1.333,3.41-2.711,5.074-4.139a34.525,34.525,0,0,0,10.809-16.168,18.13,18.13,0,0,0,.716-8.25,7.033,7.033,0,0,0-.809-2.274,41.868,41.868,0,0,0-3.042-3.631c-3.521,1.944-2.924-3.2-8.915-3.2Zm-9.406,35.645c-6.224-9.054-4.267-17.466-1.494-22.964a21.787,21.787,0,0,1,5.05-5.968c1.131.383,6.342,2.33,7.239,5.88,1,3.964-4.123,15.923-10.795,23.051Z" transform="translate(-350.731 -72.615)" fill="#040505"/>
      </g>
      <path id="Path_365" data-name="Path 365" d="M377.337,109.5c-.1-.1-.184-.2-.277-.3,2.573-2.094,5.173-4.229,7.812-6.332,13.994-11.158,11.785-23.75,11.785-23.75-6.029-15.5-30.318-9.819-34.821,5.628,0,0-7.071,11.473,4.726,28.471a148.8,148.8,0,0,1-22.165,14.8c4.649.8,16.1-6,24.169-12.1.124.158.245.315.373.474,0,0,13.994,13.993,27.773,15.286,0,0,7.535-3.014,9.9-4.951C406.616,126.728,393.914,127.158,377.337,109.5ZM372.624,82.16a18.308,18.308,0,0,1,5.762-6.029s6.271,1.771,7.348,6.031-4.268,16.617-11.273,23.852C367.713,96.579,369.722,87.914,372.624,82.16Z" transform="translate(-344.398 -69.948)" fill="#f5bfd2"/>
      <path id="Path_366" data-name="Path 366" d="M352.457,197.371" transform="translate(-348.91 -141.29)" fill="#f5bfd2"/>
    </g>
    <text id="LOWCOUNTRY" transform="translate(178.334 137.237)" fill="#040505" font-size="20" font-family="CenturyGothic, Century Gothic" letter-spacing="0.4em"><tspan x="0" y="0">LOWCOUNTRY</tspan></text>
  </g>
</svg>
